<svg xmlns="http://www.w3.org/2000/svg" viewBox="0 0 1440 224.1"><g id="Layer_2" data-name="Layer 2"><g id="Layer_1-2" data-name="Layer 1"><polygon points="790.76 126.73 665.19 3.78 572.76 3.78 572.76 220.03 654.73 220.03 654.73 88.94 790.18 220.03 872.73 220.03 872.73 3.78 790.76 3.78 790.76 126.73"/><polygon points="390.31 136.32 544.94 136.32 544.94 83.71 390.31 83.71 390.31 56.68 548.14 56.68 548.14 3.78 308.92 3.78 308.92 220.03 550.47 220.03 550.47 165.97 390.31 165.97 390.31 136.32"/><path d="M178.18,81.39l-39-.88C98.54,79.93,92.14,72.67,92.14,64v-.29c0-8.43,4.36-16,47.67-16h2.91c46.79,0,51.44,15.11,52.32,23h89.81V68.31C284.85,34,260.44,0,153.47,0H127.6C27,0,3.2,30.81,3.2,66V68.6c0,33.71,22.38,62.49,106.09,65.11l40.11,1.16c45.64,1.16,50.87,8.72,50.87,19.47v.29c0,10.47-6.69,20.35-52.9,20.35h-2.62c-47.09,0-53.19-18.89-54.06-30.52H0v2.91c0,28.19,12.5,76.73,132,76.73h26.45c113.65,0,134-36.91,134-73.54V146.5C292.41,103.19,260.44,83.42,178.18,81.39Z"/><polygon points="1279.84 165.97 1279.84 136.32 1434.48 136.32 1434.48 83.71 1279.84 83.71 1279.84 56.68 1437.67 56.68 1437.67 3.78 1198.46 3.78 1198.46 220.03 1440 220.03 1440 165.97 1279.84 165.97"/><path d="M1067.71,81.39l-39-.88c-40.69-.58-47.09-7.84-47.09-16.56v-.29c0-8.43,4.37-16,47.68-16h2.9c46.8,0,51.45,15.11,52.32,23h89.82V68.31C1174.39,34,1150,0,1043,0h-25.87C916.57,0,892.73,30.81,892.73,66V68.6c0,33.71,22.38,62.49,106.09,65.11l40.12,1.16c45.63,1.16,50.86,8.72,50.86,19.47v.29c0,10.47-6.68,20.35-52.9,20.35h-2.61c-47.09,0-53.19-18.89-54.07-30.52H889.54v2.91c0,28.19,12.49,76.73,132,76.73H1048c113.65,0,134-36.91,134-73.54V146.5C1181.94,103.19,1150,83.42,1067.71,81.39Z"/></g></g></svg>